<?xml version="1.0" encoding="UTF-8"?>
<svg class="trident" xmlns="http://www.w3.org/2000/svg" xmlns:xlink="http://www.w3.org/1999/xlink" width="42px" height="84px" viewBox="0 0 42 84" version="1.1">
<g id="surface1">
<path style=" stroke:none;fill-rule:nonzero;fill:rgb(79.607843%,57.647059%,3.921569%);fill-opacity:1;" d="M 23.394531 1.785156 C 22.902344 2.769531 22.15625 4.121094 21.753906 4.792969 L 21.019531 6.003906 L 20.453125 11.714844 L 19.808594 13.714844 C 19.457031 14.820312 18.757812 17.019531 18.246094 18.605469 C 17.730469 20.191406 17.070312 22.257812 16.769531 23.199219 C 16.386719 24.378906 16.199219 24.894531 16.132812 24.894531 C 15.742188 24.828125 11.363281 23.871094 11.285156 23.832031 C 11.199219 23.796875 11.199219 23.542969 11.332031 21.425781 C 11.417969 20.125 11.550781 17.847656 11.648438 16.371094 C 11.746094 14.886719 11.8125 13.550781 11.8125 13.386719 C 11.804688 12.996094 9.066406 6.277344 8.902344 6.246094 C 8.816406 6.226562 8.792969 6.277344 8.792969 6.398438 C 8.792969 6.496094 8.957031 8.203125 9.152344 10.191406 C 9.351562 12.183594 9.527344 14.054688 9.550781 14.339844 C 9.582031 14.847656 9.542969 15.085938 8.449219 20.144531 C 7.527344 24.390625 7.316406 25.457031 7.375 25.566406 C 7.480469 25.75 9.03125 27.78125 9.144531 27.878906 C 9.207031 27.933594 9.625 27.882812 10.9375 27.660156 L 12.632812 27.363281 L 13.761719 27.605469 C 14.382812 27.738281 14.921875 27.863281 14.972656 27.898438 C 15.027344 27.933594 15.128906 28.601562 15.269531 29.871094 C 15.503906 32.011719 15.519531 31.71875 15.128906 33.699219 C 14.996094 34.308594 14.722656 35.746094 14.503906 36.878906 C 14.28125 38.019531 14.011719 39.375 13.910156 39.902344 C 13.808594 40.425781 13.550781 41.78125 13.324219 42.917969 C 13.105469 44.050781 12.863281 45.269531 12.796875 45.609375 C 12.730469 45.949219 12.488281 47.167969 12.269531 48.300781 C 12.042969 49.4375 11.785156 50.792969 11.683594 51.316406 C 11.582031 51.84375 11.3125 53.199219 11.089844 54.339844 C 10.871094 55.472656 10.609375 56.832031 10.5 57.355469 C 10.390625 57.878906 10.128906 59.238281 9.910156 60.375 C 9.691406 61.511719 9.460938 62.726562 9.386719 63.066406 C 9.316406 63.410156 9.050781 64.761719 8.792969 66.082031 C 8.539062 67.402344 8.269531 68.761719 8.203125 69.105469 C 8.136719 69.441406 7.894531 70.65625 7.675781 71.792969 C 7.449219 72.925781 7.191406 74.285156 7.089844 74.8125 C 6.988281 75.339844 6.71875 76.699219 6.496094 77.832031 C 6.277344 78.96875 5.972656 80.488281 5.839844 81.210938 C 5.699219 81.921875 5.578125 82.578125 5.578125 82.652344 C 5.578125 83.027344 6.316406 83.816406 6.78125 83.945312 C 7.152344 84.042969 7.753906 83.972656 8.257812 83.78125 C 8.847656 83.542969 8.96875 83.453125 9.011719 83.199219 C 9.03125 83.082031 9.167969 82.402344 9.316406 81.703125 C 9.472656 81.003906 9.613281 80.292969 9.644531 80.128906 C 9.679688 79.964844 9.832031 79.253906 9.972656 78.550781 C 10.128906 77.847656 10.269531 77.144531 10.300781 76.980469 C 10.335938 76.816406 10.488281 76.105469 10.628906 75.402344 C 10.785156 74.703125 10.925781 73.992188 10.957031 73.828125 C 10.992188 73.664062 11.144531 72.953125 11.285156 72.253906 C 11.441406 71.550781 11.582031 70.839844 11.613281 70.675781 C 11.675781 70.375 12.097656 68.332031 12.347656 67.199219 C 12.414062 66.855469 12.523438 66.292969 12.597656 65.953125 C 12.667969 65.613281 12.816406 64.902344 12.925781 64.378906 C 13.042969 63.855469 13.191406 63.144531 13.253906 62.800781 C 13.332031 62.464844 13.507812 61.605469 13.652344 60.902344 C 13.800781 60.199219 13.945312 59.488281 13.980469 59.324219 C 14.011719 59.160156 14.164062 58.449219 14.308594 57.75 C 14.457031 57.050781 14.601562 56.339844 14.636719 56.175781 C 14.667969 56.011719 14.820312 55.300781 14.964844 54.597656 C 15.113281 53.894531 15.257812 53.191406 15.292969 53.027344 C 15.355469 52.71875 15.777344 50.683594 16.023438 49.546875 C 16.089844 49.207031 16.199219 48.644531 16.277344 48.300781 C 16.339844 47.960938 16.488281 47.25 16.605469 46.722656 C 16.714844 46.199219 16.863281 45.488281 16.933594 45.152344 C 17.007812 44.808594 17.183594 43.949219 17.324219 43.246094 C 17.472656 42.546875 17.621094 41.835938 17.652344 41.671875 C 17.683594 41.507812 17.839844 40.796875 17.980469 40.097656 C 18.128906 39.394531 18.277344 38.683594 18.308594 38.519531 C 18.339844 38.355469 18.496094 37.652344 18.636719 36.949219 C 18.785156 36.246094 18.933594 35.535156 18.964844 35.371094 C 18.996094 35.207031 19.128906 34.574219 19.261719 33.972656 C 19.386719 33.359375 19.488281 32.855469 19.488281 32.839844 C 19.488281 32.824219 19.558594 32.8125 19.644531 32.8125 C 19.769531 32.8125 19.949219 32.550781 20.792969 31.105469 C 21.355469 30.167969 21.820312 29.386719 21.847656 29.375 C 21.863281 29.359375 22.410156 29.464844 23.066406 29.597656 L 24.226562 29.859375 L 25.691406 30.835938 L 27.152344 31.820312 L 28.519531 31.074219 L 29.886719 30.339844 L 32.199219 19.589844 L 34.277344 15.96875 C 35.417969 13.980469 36.367188 12.3125 36.367188 12.261719 C 36.441406 11.941406 35.949219 12.359375 33.488281 14.699219 C 31.019531 17.035156 30.777344 17.292969 30.660156 17.609375 C 30.480469 18.066406 29.859375 19.714844 28.363281 23.660156 C 27.683594 25.464844 27.097656 27.015625 27.070312 27.089844 C 27.035156 27.207031 26.988281 27.234375 26.886719 27.207031 C 26.808594 27.191406 25.660156 26.949219 24.347656 26.660156 L 21.972656 26.152344 L 22.003906 25.855469 C 22.027344 25.691406 22.367188 22.632812 22.769531 19.066406 L 23.503906 12.566406 L 24.4375 9.746094 L 25.375 6.925781 L 25.199219 5.511719 C 25.082031 4.636719 24.980469 3.453125 24.9375 2.363281 C 24.894531 1.410156 24.855469 0.492188 24.828125 0.339844 C 24.800781 0.0820312 24.785156 0.0546875 24.636719 0.0976562 C 24.542969 0.125 24.480469 0.109375 24.480469 0.0703125 C 24.480469 0.0351562 24.4375 0 24.390625 0 C 24.347656 0 23.898438 0.808594 23.394531 1.785156 Z M 23.394531 1.785156 "/>
</g>
</svg>
